<svg xmlns="http://www.w3.org/2000/svg" width="19" height="19" viewBox="0 0 19 19" fill="none">
  <path d="M3.16634 16.6247C2.73092 16.6247 2.35818 16.4696 2.04811 16.1596C1.73804 15.8495 1.58301 15.4768 1.58301 15.0413V6.33301C1.58301 5.89759 1.73804 5.52485 2.04811 5.21478C2.35818 4.90471 2.73092 4.74967 3.16634 4.74967H6.33301V3.16634C6.33301 2.73092 6.48804 2.35818 6.79811 2.04811C7.10818 1.73804 7.48093 1.58301 7.91634 1.58301H11.083C11.5184 1.58301 11.8912 1.73804 12.2012 2.04811C12.5113 2.35818 12.6663 2.73092 12.6663 3.16634V4.74967H15.833C16.2684 4.74967 16.6412 4.90471 16.9512 5.21478C17.2613 5.52485 17.4163 5.89759 17.4163 6.33301V15.0413C17.4163 15.4768 17.2613 15.8495 16.9512 16.1596C16.6412 16.4696 16.2684 16.6247 15.833 16.6247H3.16634ZM3.16634 15.0413H15.833V6.33301H3.16634V15.0413ZM7.91634 4.74967H11.083V3.16634H7.91634V4.74967Z" fill="white"/>
</svg>
