<svg xmlns="http://www.w3.org/2000/svg" width="19" height="19" viewBox="0 0 19 19" fill="none">
  <mask id="mask0_1163_1565" style="mask-type:alpha" maskUnits="userSpaceOnUse" x="0" y="0" width="19" height="19">
    <rect width="19" height="19" fill="#D9D9D9"/>
  </mask>
  <g mask="url(#mask0_1163_1565)">
    <path d="M16.3083 16.6247L12.5875 12.9038C12.0465 13.3261 11.4495 13.6559 10.7964 13.8934C10.1432 14.1309 9.44722 14.2497 8.70833 14.2497C6.94028 14.2497 5.44271 13.6361 4.21563 12.409C2.98854 11.182 2.375 9.6844 2.375 7.91634C2.375 6.14829 2.98854 4.65072 4.21563 3.42363C5.44271 2.19655 6.94028 1.58301 8.70833 1.58301C10.4764 1.58301 11.974 2.19655 13.201 3.42363C14.4281 4.65072 15.0417 6.14829 15.0417 7.91634C15.0417 8.65523 14.9229 9.35124 14.6854 10.0044C14.4479 10.6575 14.1181 11.2545 13.6958 11.7955L17.4167 15.5163L16.3083 16.6247ZM8.70833 12.6663C10.0278 12.6663 11.1493 12.2045 12.0729 11.2809C12.9965 10.3573 13.4583 9.23579 13.4583 7.91634C13.4583 6.5969 12.9965 5.47537 12.0729 4.55176C11.1493 3.62815 10.0278 3.16634 8.70833 3.16634C7.38889 3.16634 6.26736 3.62815 5.34375 4.55176C4.42014 5.47537 3.95833 6.5969 3.95833 7.91634C3.95833 9.23579 4.42014 10.3573 5.34375 11.2809C6.26736 12.2045 7.38889 12.6663 8.70833 12.6663Z" fill="white"/>
  </g>
</svg>