<svg width="12" height="15" viewBox="0 0 12 15" fill="none" xmlns="http://www.w3.org/2000/svg">
<path d="M1.5 15C1.0875 15 0.7345 14.8532 0.441 14.5597C0.1475 14.2662 0.0005 13.913 0 13.5V4.5C0 4.0875 0.147 3.7345 0.441 3.441C0.735 3.1475 1.088 3.0005 1.5 3H3C3 2.175 3.29375 1.46875 3.88125 0.88125C4.46875 0.29375 5.175 0 6 0C6.825 0 7.53125 0.29375 8.11875 0.88125C8.70625 1.46875 9 2.175 9 3H10.5C10.9125 3 11.2657 3.147 11.5597 3.441C11.8537 3.735 12.0005 4.088 12 4.5V13.5C12 13.9125 11.8532 14.2657 11.5597 14.5597C11.2662 14.8537 10.913 15.0005 10.5 15H1.5ZM1.5 13.5H10.5V4.5H9V6C9 6.2125 8.928 6.39075 8.784 6.53475C8.64 6.67875 8.462 6.7505 8.25 6.75C8.038 6.7495 7.86 6.6775 7.716 6.534C7.572 6.3905 7.5 6.2125 7.5 6V4.5H4.5V6C4.5 6.2125 4.428 6.39075 4.284 6.53475C4.14 6.67875 3.962 6.7505 3.75 6.75C3.538 6.7495 3.36 6.6775 3.216 6.534C3.072 6.3905 3 6.2125 3 6V4.5H1.5V13.5ZM4.5 3H7.5C7.5 2.5875 7.35325 2.2345 7.05975 1.941C6.76625 1.6475 6.413 1.5005 6 1.5C5.587 1.4995 5.234 1.6465 4.941 1.941C4.648 2.2355 4.501 2.5885 4.5 3Z" fill="white"/>
</svg>
